<svg version="1.1" id="Layer_1" xmlns="http://www.w3.org/2000/svg" xmlns:xlink="http://www.w3.org/1999/xlink" x="0px" y="0px"
	 width="100%" viewBox="0 0 512 512" enable-background="new 0 0 512 512" xml:space="preserve">
<path fill="#E6E6E6" opacity="1.000000" stroke="none" 
	d="
M1.000000,385.000000 
	C1.000000,257.043030 1.000000,129.086044 1.000000,1.064533 
	C171.566269,1.064533 342.132568,1.064533 513.000000,1.064533 
	C513.000000,128.689835 513.000000,256.379913 512.532166,384.534485 
	C341.709564,384.999329 171.354782,384.999664 1.000000,385.000000 
M213.970535,52.079308 
	C184.846130,52.053135 155.721664,51.983669 126.597382,52.030380 
	C119.054855,52.042473 113.755280,55.931149 110.269760,62.460381 
	C98.539474,84.434097 86.729172,106.366180 75.205757,128.447922 
	C73.773109,131.193222 73.880180,134.742020 73.042953,138.840820 
	C73.028435,200.473526 73.012177,262.106232 73.001137,323.738953 
	C72.999298,334.024902 76.004333,336.965820 86.483231,336.965881 
	C200.254120,336.966705 314.025024,336.966400 427.795898,336.966125 
	C429.128510,336.966125 430.463013,337.008484 431.793365,336.952881 
	C437.906647,336.697418 441.648285,332.994629 441.965088,326.921722 
	C441.973755,326.755585 441.968262,326.588654 441.968201,326.422089 
	C441.933777,263.291504 441.899231,200.160934 442.023346,136.198471 
	C441.703888,134.097305 441.920441,131.713425 440.983826,129.937805 
	C428.753967,106.752052 416.471436,83.592171 403.930939,60.573544 
	C400.803345,54.832626 395.491669,51.967670 388.694885,51.973186 
	C332.579041,52.018734 276.463104,51.997173 220.347214,52.011154 
	C218.523590,52.011608 216.699997,52.174969 213.970535,52.079308 
z"/>
<path fill="#FFFEFE" opacity="1.000000" stroke="none" 
	d="
M1.000000,385.467834 
	C171.354782,384.999664 341.709564,384.999329 512.532166,384.999512 
	C513.000000,427.642456 513.000000,470.284912 513.000000,512.963684 
	C342.454376,512.963684 171.908722,512.963684 1.000000,512.963684 
	C1.000000,470.645935 1.000000,428.290802 1.000000,385.467834 
M145.070633,479.763672 
	C154.632721,478.419189 163.586090,475.567932 170.690353,468.670624 
	C171.968842,467.429382 172.421677,465.337708 173.255722,463.638641 
	C156.689957,475.847321 142.203445,476.645935 131.021393,465.371185 
	C121.403961,455.673950 120.722969,440.150482 129.444733,429.430908 
	C137.862625,419.084808 153.100708,416.579102 164.253571,423.984009 
	C159.949631,430.897156 155.635742,437.826294 151.321838,444.755402 
	C151.510788,445.020233 151.699738,445.285095 151.888672,445.549927 
	C160.247711,440.721893 168.606735,435.893860 178.886536,429.956421 
	C174.894318,426.788788 171.932129,424.091553 168.640915,421.885162 
	C151.613297,410.470215 133.677338,410.059235 115.644867,418.813660 
	C104.103905,424.416565 97.770485,434.242950 98.095657,447.299866 
	C98.415115,460.127625 105.309807,469.129486 116.525726,474.839996 
	C125.190521,479.251648 134.512573,480.578644 145.070633,479.763672 
M388.741699,469.436707 
	C388.741730,460.282349 388.787384,451.127655 388.719604,441.973785 
	C388.692108,438.255280 388.848083,434.321289 393.659790,434.415344 
	C398.453979,434.509094 398.451752,438.555115 398.434174,442.197540 
	C398.398071,449.687286 398.423431,457.177368 398.423462,464.667297 
	C398.423462,469.091248 398.423492,473.515198 398.423492,477.927307 
	C405.346283,477.927307 411.566437,477.927307 418.040070,477.927307 
	C418.040070,463.633911 418.087524,449.673828 418.023285,435.714294 
	C417.980835,426.493561 411.283600,422.226471 402.842804,425.978729 
	C398.176636,428.053070 393.559875,430.238434 388.954193,432.358368 
	C385.202332,425.451416 381.124817,423.014893 375.710114,425.106445 
	C369.612396,427.461761 363.780548,430.505402 357.833069,433.249603 
	C357.885101,433.555756 357.937134,433.861877 357.989166,434.168030 
	C361.526001,434.168030 365.062866,434.168030 369.033936,434.168030 
	C369.033936,449.064148 369.033936,463.461945 369.033936,478.014526 
	C375.741058,478.014526 381.980835,478.014526 388.741699,478.014526 
	C388.741699,475.320404 388.741699,472.866913 388.741699,469.436707 
M295.112701,471.457275 
	C295.112274,459.457397 295.175751,447.457062 295.090424,435.457794 
	C295.026855,426.513214 288.379669,422.304382 280.147095,425.925690 
	C275.468384,427.983795 270.850830,430.180756 265.959686,432.428223 
	C263.721161,427.028595 260.052673,423.184143 254.436386,424.880615 
	C247.693924,426.917267 241.369385,430.337494 234.863861,433.158600 
	C234.990906,433.540405 235.117950,433.922241 235.244995,434.304047 
	C238.697144,434.304047 242.149292,434.304047 246.108170,434.304047 
	C246.108170,449.032715 246.108170,463.438629 246.108170,477.997162 
	C252.879623,477.997162 259.126770,477.997162 265.852783,477.997162 
	C265.852783,465.453491 265.904785,453.162384 265.819092,440.872253 
	C265.795380,437.470428 266.643860,434.563599 270.379333,434.380920 
	C274.424408,434.183075 275.641327,437.162262 275.641296,440.750824 
	C275.641235,449.584076 275.643219,458.417297 275.644104,467.250549 
	C275.644470,470.838074 275.644165,474.425629 275.644165,478.031372 
	C282.465149,478.031372 288.561584,478.031372 295.112701,478.031372 
	C295.112701,476.023743 295.112701,474.234161 295.112701,471.457275 
M190.847626,434.189392 
	C196.478439,434.189392 202.109268,434.189392 207.945679,434.189392 
	C209.140488,438.928101 210.247345,443.318024 211.686890,449.027374 
	C208.880966,447.694061 207.466553,446.900604 205.967300,446.330017 
	C198.350006,443.431061 190.890930,443.794861 183.922409,448.102234 
	C172.790100,454.983276 172.864090,469.034454 183.942886,476.007385 
	C192.962616,481.684387 205.337784,480.480347 213.629074,473.113312 
	C214.793030,472.079132 215.936310,471.021667 217.382874,469.708313 
	C218.036209,472.081604 218.284866,473.937042 219.073792,475.523865 
	C219.621155,476.624786 220.879761,478.086731 221.876602,478.131165 
	C227.498459,478.381775 233.137299,478.252197 239.393707,478.252197 
	C235.305710,463.273407 231.634735,448.804779 227.337097,434.524750 
	C225.324829,427.838409 218.272888,423.224823 211.695236,424.738007 
	C202.849365,426.773010 194.322083,430.192719 185.658035,433.018036 
	C185.769623,433.408447 185.881210,433.798889 185.992813,434.189301 
	C187.316071,434.189301 188.639328,434.189301 190.847626,434.189392 
M324.037903,425.352966 
	C323.087982,425.657623 322.118988,425.913239 321.191010,426.274292 
	C307.268127,431.691284 300.087585,446.907684 304.798126,460.985901 
	C309.549042,475.184814 324.267822,482.976410 338.701324,478.932953 
	C352.922699,474.948914 361.389191,460.376160 358.063049,445.797485 
	C355.123047,432.911163 341.849426,421.633881 324.037903,425.352966 
z"/>
<path fill="#4C4C4C" opacity="1.000000" stroke="none" 
	d="
M441.864746,137.030365 
	C441.899231,200.160934 441.933777,263.291504 441.968201,326.422089 
	C441.968262,326.588654 441.973755,326.755585 441.965088,326.921722 
	C441.648285,332.994629 437.906647,336.697418 431.793365,336.952881 
	C430.463013,337.008484 429.128510,336.966125 427.795898,336.966125 
	C314.025024,336.966400 200.254120,336.966705 86.483231,336.965881 
	C76.004333,336.965820 72.999298,334.024902 73.001137,323.738953 
	C73.012177,262.106232 73.028435,200.473526 73.565269,138.384720 
	C76.369164,138.286331 78.650543,138.955139 80.932358,138.956635 
	C154.240753,139.004578 227.549179,138.988037 301.335175,138.985794 
	C344.119690,138.993393 386.426849,139.053894 428.733337,138.913208 
	C433.112518,138.898651 437.487701,137.686722 441.864746,137.030365 
M386.952484,199.960770 
	C389.926575,200.397034 391.196838,199.264816 391.050232,196.122971 
	C390.848724,191.803955 390.617767,187.425369 391.098541,183.150940 
	C391.694580,177.851974 389.557526,176.886475 384.673004,176.894775 
	C299.935577,177.039001 215.197845,176.998688 130.460175,176.999023 
	C129.461319,176.999023 128.456512,177.074982 127.464745,176.992340 
	C124.866455,176.775909 123.917282,177.956116 123.969055,180.508270 
	C124.077095,185.833359 124.126556,191.166367 123.950714,196.487885 
	C123.850121,199.532333 125.278992,200.280853 127.885475,200.728622 
	C120.625015,232.315140 113.364548,263.901642 106.071327,295.630676 
	C206.792725,295.630676 307.239655,295.630676 407.851288,295.630676 
	C400.542786,263.475891 393.322510,231.709091 386.952484,199.960770 
z"/>
<path fill="#666666" opacity="1.000000" stroke="none" 
	d="
M441.944031,136.614426 
	C437.487701,137.686722 433.112518,138.898651 428.733337,138.913208 
	C386.426849,139.053894 344.119690,138.993393 301.221222,138.682983 
	C294.712006,132.311798 288.794342,126.248024 283.350098,120.114449 
	C292.729156,120.044647 301.634735,120.044647 311.101654,120.044647 
	C308.200745,111.291161 305.649109,103.243027 302.770020,95.313789 
	C302.379211,94.237411 300.352539,93.107460 299.076294,93.099304 
	C284.776276,93.008018 270.474854,93.131996 255.827179,93.096024 
	C255.249649,92.925293 255.018753,92.856575 254.619171,92.526840 
	C248.855392,86.805649 243.172974,81.431534 237.686264,75.864563 
	C230.006531,68.072502 222.472656,60.136700 214.876389,52.262390 
	C216.699997,52.174969 218.523590,52.011608 220.347214,52.011154 
	C276.463104,51.997173 332.579041,52.018734 388.694885,51.973186 
	C395.491669,51.967670 400.803345,54.832626 403.930939,60.573544 
	C416.471436,83.592171 428.753967,106.752052 440.983826,129.937805 
	C441.920441,131.713425 441.703888,134.097305 441.944031,136.614426 
z"/>
<path fill="#1A1A1A" opacity="1.000000" stroke="none" 
	d="
M214.423462,52.170853 
	C222.472656,60.136700 230.006531,68.072502 237.686264,75.864563 
	C243.172974,81.431534 248.855392,86.805649 254.173309,92.597183 
	C241.265091,92.952744 228.633270,92.915688 216.004074,93.080429 
	C214.464691,93.100517 211.944412,93.837791 211.565231,94.865143 
	C208.556793,103.016273 205.956757,111.318130 203.161407,119.785378 
	C229.583267,119.785378 255.330338,119.785378 281.375305,119.861328 
	C282.074371,120.019592 282.475525,120.101921 282.876678,120.184250 
	C288.794342,126.248024 294.712006,132.311798 300.743652,138.678375 
	C227.549179,138.988037 154.240753,139.004578 80.932358,138.956635 
	C78.650543,138.955139 76.369164,138.286331 73.680695,137.923553 
	C73.880180,134.742020 73.773109,131.193222 75.205757,128.447922 
	C86.729172,106.366180 98.539474,84.434097 110.269760,62.460381 
	C113.755280,55.931149 119.054855,52.042473 126.597382,52.030380 
	C155.721664,51.983669 184.846130,52.053135 214.423462,52.170853 
z"/>
<path fill="#CD0606" opacity="1.000000" stroke="none" 
	d="
M144.614838,479.807526 
	C134.512573,480.578644 125.190521,479.251648 116.525726,474.839996 
	C105.309807,469.129486 98.415115,460.127625 98.095657,447.299866 
	C97.770485,434.242950 104.103905,424.416565 115.644867,418.813660 
	C133.677338,410.059235 151.613297,410.470215 168.640915,421.885162 
	C171.932129,424.091553 174.894318,426.788788 178.886536,429.956421 
	C168.606735,435.893860 160.247711,440.721893 151.888672,445.549927 
	C151.699738,445.285095 151.510788,445.020233 151.321838,444.755402 
	C155.635742,437.826294 159.949631,430.897156 164.253571,423.984009 
	C153.100708,416.579102 137.862625,419.084808 129.444733,429.430908 
	C120.722969,440.150482 121.403961,455.673950 131.021393,465.371185 
	C142.203445,476.645935 156.689957,475.847321 173.255722,463.638641 
	C172.421677,465.337708 171.968842,467.429382 170.690353,468.670624 
	C163.586090,475.567932 154.632721,478.419189 144.614838,479.807526 
z"/>
<path fill="#CD0505" opacity="1.000000" stroke="none" 
	d="
M388.741699,469.925049 
	C388.741699,472.866913 388.741699,475.320404 388.741699,478.014526 
	C381.980835,478.014526 375.741058,478.014526 369.033936,478.014526 
	C369.033936,463.461945 369.033936,449.064148 369.033936,434.168030 
	C365.062866,434.168030 361.526001,434.168030 357.989166,434.168030 
	C357.937134,433.861877 357.885101,433.555756 357.833069,433.249603 
	C363.780548,430.505402 369.612396,427.461761 375.710114,425.106445 
	C381.124817,423.014893 385.202332,425.451416 388.954193,432.358368 
	C393.559875,430.238434 398.176636,428.053070 402.842804,425.978729 
	C411.283600,422.226471 417.980835,426.493561 418.023285,435.714294 
	C418.087524,449.673828 418.040070,463.633911 418.040070,477.927307 
	C411.566437,477.927307 405.346283,477.927307 398.423492,477.927307 
	C398.423492,473.515198 398.423462,469.091248 398.423462,464.667297 
	C398.423431,457.177368 398.398071,449.687286 398.434174,442.197540 
	C398.451752,438.555115 398.453979,434.509094 393.659790,434.415344 
	C388.848083,434.321289 388.692108,438.255280 388.719604,441.973785 
	C388.787384,451.127655 388.741730,460.282349 388.741699,469.925049 
z"/>
<path fill="#CD0303" opacity="1.000000" stroke="none" 
	d="
M295.112701,471.950928 
	C295.112701,474.234161 295.112701,476.023743 295.112701,478.031372 
	C288.561584,478.031372 282.465149,478.031372 275.644165,478.031372 
	C275.644165,474.425629 275.644470,470.838074 275.644104,467.250549 
	C275.643219,458.417297 275.641235,449.584076 275.641296,440.750824 
	C275.641327,437.162262 274.424408,434.183075 270.379333,434.380920 
	C266.643860,434.563599 265.795380,437.470428 265.819092,440.872253 
	C265.904785,453.162384 265.852783,465.453491 265.852783,477.997162 
	C259.126770,477.997162 252.879623,477.997162 246.108170,477.997162 
	C246.108170,463.438629 246.108170,449.032715 246.108170,434.304047 
	C242.149292,434.304047 238.697144,434.304047 235.244995,434.304047 
	C235.117950,433.922241 234.990906,433.540405 234.863861,433.158600 
	C241.369385,430.337494 247.693924,426.917267 254.436386,424.880615 
	C260.052673,423.184143 263.721161,427.028595 265.959686,432.428223 
	C270.850830,430.180756 275.468384,427.983795 280.147095,425.925690 
	C288.379669,422.304382 295.026855,426.513214 295.090424,435.457794 
	C295.175751,447.457062 295.112274,459.457397 295.112701,471.950928 
z"/>
<path fill="#CD0404" opacity="1.000000" stroke="none" 
	d="
M190.405106,434.189331 
	C188.639328,434.189301 187.316071,434.189301 185.992813,434.189301 
	C185.881210,433.798889 185.769623,433.408447 185.658035,433.018036 
	C194.322083,430.192719 202.849365,426.773010 211.695236,424.738007 
	C218.272888,423.224823 225.324829,427.838409 227.337097,434.524750 
	C231.634735,448.804779 235.305710,463.273407 239.393707,478.252197 
	C233.137299,478.252197 227.498459,478.381775 221.876602,478.131165 
	C220.879761,478.086731 219.621155,476.624786 219.073792,475.523865 
	C218.284866,473.937042 218.036209,472.081604 217.382874,469.708313 
	C215.936310,471.021667 214.793030,472.079132 213.629074,473.113312 
	C205.337784,480.480347 192.962616,481.684387 183.942886,476.007385 
	C172.864090,469.034454 172.790100,454.983276 183.922409,448.102234 
	C190.890930,443.794861 198.350006,443.431061 205.967300,446.330017 
	C207.466553,446.900604 208.880966,447.694061 211.686890,449.027374 
	C210.247345,443.318024 209.140488,438.928101 207.945679,434.189392 
	C202.109268,434.189392 196.478439,434.189392 190.405106,434.189331 
M199.542374,470.132843 
	C203.516998,472.661163 207.866135,472.823669 210.925873,469.452972 
	C212.991486,467.177429 214.386292,463.369629 214.310822,460.290619 
	C214.198166,455.694794 210.636139,452.921082 206.093552,452.323273 
	C201.729797,451.748962 198.217514,453.694611 196.260864,457.634674 
	C193.981552,462.224579 195.091705,466.324280 199.542374,470.132843 
z"/>
<path fill="#CD0505" opacity="1.000000" stroke="none" 
	d="
M324.429962,425.245850 
	C341.849426,421.633881 355.123047,432.911163 358.063049,445.797485 
	C361.389191,460.376160 352.922699,474.948914 338.701324,478.932953 
	C324.267822,482.976410 309.549042,475.184814 304.798126,460.985901 
	C300.087585,446.907684 307.268127,431.691284 321.191010,426.274292 
	C322.118988,425.913239 323.087982,425.657623 324.429962,425.245850 
M329.040558,468.349091 
	C329.228027,468.985077 329.442413,469.614563 329.598511,470.258148 
	C330.607147,474.416382 333.015839,476.761963 337.478302,475.798340 
	C341.106873,475.014801 342.535919,471.583099 341.335602,467.009277 
	C338.475372,456.110260 335.614929,445.210876 332.656158,434.338409 
	C331.369995,429.612030 328.579254,427.693481 324.868683,428.656403 
	C321.109131,429.632019 319.609589,432.674683 320.822662,437.305542 
	C323.467987,447.403900 326.204193,457.478485 329.040558,468.349091 
z"/>
<path fill="#FEFEFE" opacity="1.000000" stroke="none" 
	d="
M386.102203,199.942307 
	C393.322510,231.709091 400.542786,263.475891 407.851288,295.630676 
	C307.239655,295.630676 206.792725,295.630676 106.071327,295.630676 
	C113.364548,263.901642 120.625015,232.315140 127.911530,200.396561 
	C127.937576,200.064499 128.064331,200.045227 128.524200,200.024597 
	C133.023254,199.959808 137.062408,199.915680 141.560852,199.924683 
	C177.646118,199.942444 213.272110,199.907074 249.371460,199.913376 
	C254.324158,199.968018 258.807037,199.874222 263.281860,200.022644 
	C268.171051,200.184830 273.052826,200.571121 277.644531,201.029694 
	C273.540802,204.326660 268.992126,206.986938 269.842102,213.438263 
	C270.938110,219.798996 275.638275,222.524063 280.417175,224.791092 
	C292.924835,230.724503 306.257629,232.691330 320.403503,232.336121 
	C328.687134,231.611313 336.747772,231.491241 344.411896,229.686798 
	C350.537537,228.244568 356.611176,225.419250 361.920807,221.989365 
	C367.606598,218.316483 367.764709,212.426910 363.014099,207.523712 
	C360.414185,204.840271 357.017761,202.928528 354.337555,200.460022 
	C365.108307,200.182587 375.521973,200.113907 385.999084,200.054749 
	C386.062500,200.064270 386.102203,199.942307 386.102203,199.942307 
M335.500000,286.998444 
	C353.245941,286.998444 370.991882,286.998444 389.035370,286.998444 
	C387.928619,280.984253 386.942719,275.626709 385.939606,270.175629 
	C299.864197,270.175629 214.100861,270.175629 128.036667,270.175629 
	C127.049324,275.738525 126.083221,281.181732 125.050827,286.998444 
	C195.247223,286.998444 264.873596,286.998444 335.500000,286.998444 
M144.243103,245.752777 
	C143.373581,251.294846 142.504059,256.836914 141.586914,262.682495 
	C147.080994,262.682495 152.116516,262.682495 157.422455,262.682495 
	C159.322647,249.490738 161.182739,236.577332 163.092133,223.321747 
	C157.977798,223.321747 153.245682,223.321747 148.226303,223.321747 
	C146.944397,230.601593 145.684723,237.755127 144.243103,245.752777 
M347.500000,259.996918 
	C352.499878,259.996948 357.499756,259.998016 362.499634,259.996674 
	C368.332794,259.995117 374.168457,260.076874 379.996643,259.905151 
	C380.974609,259.876343 381.920105,258.745819 382.880585,258.124359 
	C382.002960,257.421844 381.208435,256.542297 380.219086,256.077759 
	C379.534576,255.756348 378.581146,256.003784 377.747864,256.003754 
	C341.248840,256.003113 304.749847,256.002930 268.250824,256.004578 
	C267.251038,256.004639 266.140991,255.758652 265.282532,256.112701 
	C264.429810,256.464386 263.830078,257.429535 263.119415,258.125671 
	C263.747253,258.734650 264.283203,259.663910 265.024719,259.876617 
	C266.106323,260.186890 267.335724,259.994873 268.502106,259.994995 
	C294.501404,259.997467 320.500702,259.996887 347.500000,259.996918 
M290.500000,248.003082 
	C282.333557,248.005814 274.165985,247.946457 266.002136,248.093384 
	C265.030853,248.110886 264.079803,249.254333 263.119385,249.875854 
	C263.997101,250.578293 264.791687,251.457825 265.781067,251.922302 
	C266.465637,252.243652 267.419037,251.996201 268.252319,251.996216 
	C304.084686,251.996872 339.917023,251.997070 375.749390,251.995346 
	C376.749176,251.995300 377.859192,252.241257 378.717651,251.887207 
	C379.570343,251.535538 380.170013,250.570328 380.880615,249.874146 
	C380.252716,249.265244 379.716675,248.336060 378.975128,248.123367 
	C377.893494,247.813095 376.664093,248.005112 375.497711,248.005005 
	C347.498474,248.002579 319.499237,248.003098 290.500000,248.003082 
M186.737579,242.240387 
	C187.293732,235.987106 187.849884,229.733841 188.421265,223.309296 
	C183.285065,223.309296 178.566101,223.309296 173.565262,223.309296 
	C172.331070,233.230621 171.131668,242.872269 169.909042,252.700684 
	C175.425003,252.700684 180.340927,252.700684 185.514221,252.700684 
	C185.900269,249.357529 186.259155,246.249527 186.737579,242.240387 
M371.399475,243.996918 
	C373.062683,243.990387 374.759216,244.178146 376.376038,243.901108 
	C377.279205,243.746353 378.050079,242.819794 378.880585,242.241043 
	C378.044495,241.501343 377.302551,240.577209 376.339752,240.085602 
	C375.677612,239.747513 374.709106,240.004059 373.877533,240.004044 
	C338.615631,240.003128 303.353699,240.002914 268.091797,240.004944 
	C267.094025,240.004990 266.024475,239.812302 265.120514,240.110321 
	C264.354065,240.363037 263.779083,241.196320 263.119385,241.772705 
	C263.793884,242.501205 264.351196,243.621124 265.170380,243.866348 
	C266.394897,244.232971 267.803741,243.995163 269.134155,243.995239 
	C302.899109,243.997314 336.664062,243.996902 371.399475,243.996918 
M235.490280,210.001831 
	C204.688095,210.001862 173.885910,209.999481 143.083725,210.006546 
	C140.637939,210.007095 137.497559,209.420258 139.707306,213.995758 
	C175.197388,213.995758 210.806915,214.019211 246.415787,213.875900 
	C247.423035,213.871841 248.423096,212.089783 249.426514,211.136795 
	C249.088654,210.758469 248.750778,210.380157 248.412903,210.001831 
	C244.437363,210.001831 240.461807,210.001831 235.490280,210.001831 
M196.500000,206.996918 
	C203.833115,206.996918 211.166245,206.997955 218.499359,206.996658 
	C227.665741,206.995026 236.832977,207.047028 245.997269,206.907150 
	C246.967209,206.892334 247.919891,205.746216 248.880569,205.124924 
	C248.003143,204.422241 247.192078,203.598526 246.221313,203.066025 
	C245.706970,202.783890 244.915070,203.003906 244.248459,203.003891 
	C211.082779,203.003250 177.917007,202.974777 144.751755,203.093338 
	C143.205261,203.098862 141.663437,204.417801 140.119431,205.125031 
	C141.746796,205.748932 143.369965,206.902145 145.002151,206.915054 
	C161.833923,207.048111 178.667175,206.996857 196.500000,206.996918 
M213.007431,233.580566 
	C213.007431,230.166840 213.007431,226.753128 213.007431,223.284790 
	C208.276337,223.284790 203.680099,223.284790 198.594086,223.284790 
	C197.969971,231.518936 197.362961,239.527161 196.743179,247.704041 
	C202.293930,247.704041 207.055603,247.704041 212.121155,247.704041 
	C212.419815,243.147552 212.702240,238.838989 213.007431,233.580566 
M223.743118,237.378952 
	C223.631149,239.263626 223.385727,241.093445 226.306595,240.993652 
	C230.404007,240.853653 234.509766,240.958282 238.692261,240.958282 
	C238.692261,234.625031 238.692261,228.917633 238.692261,223.279068 
	C233.727859,223.279068 229.136108,223.279068 223.790878,223.279068 
	C223.790878,227.829483 223.790878,232.118912 223.743118,237.378952 
z"/>
<path fill="#1A1A1A" opacity="1.000000" stroke="none" 
	d="
M127.917603,200.003586 
	C125.278992,200.280853 123.850121,199.532333 123.950714,196.487885 
	C124.126556,191.166367 124.077095,185.833359 123.969055,180.508270 
	C123.917282,177.956116 124.866455,176.775909 127.464745,176.992340 
	C128.456512,177.074982 129.461319,176.999023 130.460175,176.999023 
	C215.197845,176.998688 299.935577,177.039001 384.673004,176.894775 
	C389.557526,176.886475 391.694580,177.851974 391.098541,183.150940 
	C390.617767,187.425369 390.848724,191.803955 391.050232,196.122971 
	C391.196838,199.264816 389.926575,200.397034 386.527344,199.951538 
	C386.102203,199.942307 386.062500,200.064270 386.027649,199.651230 
	C385.586517,197.299820 384.956360,195.377426 384.816711,193.420044 
	C384.429657,187.995178 381.651917,186.848938 376.402802,186.861847 
	C296.687805,187.058014 216.972153,186.998123 137.256668,186.998337 
	C135.925308,186.998337 134.492264,186.693253 133.291367,187.089828 
	C132.104919,187.481628 130.502823,188.399307 130.216415,189.408081 
	C129.231293,192.877777 128.742340,196.488342 128.064331,200.045227 
	C128.064331,200.045227 127.937576,200.064499 127.917603,200.003586 
z"/>
<path fill="#3EA4CF" opacity="1.000000" stroke="none" 
	d="
M281.077423,119.785385 
	C255.330338,119.785378 229.583267,119.785378 203.161407,119.785378 
	C205.956757,111.318130 208.556793,103.016273 211.565231,94.865143 
	C211.944412,93.837791 214.464691,93.100517 216.004074,93.080429 
	C228.633270,92.915688 241.265091,92.952744 254.341980,92.858200 
	C255.018753,92.856575 255.249649,92.925293 255.976685,93.368469 
	C261.492432,98.851181 266.573730,103.900688 271.509918,109.088310 
	C274.805969,112.552284 277.895477,116.212814 281.077423,119.785385 
z"/>
<path fill="#60D6FE" opacity="1.000000" stroke="none" 
	d="
M281.375305,119.861328 
	C277.895477,116.212814 274.805969,112.552284 271.509918,109.088310 
	C266.573730,103.900688 261.492432,98.851181 256.323334,93.470490 
	C270.474854,93.131996 284.776276,93.008018 299.076294,93.099304 
	C300.352539,93.107460 302.379211,94.237411 302.770020,95.313789 
	C305.649109,103.243027 308.200745,111.291161 311.101654,120.044647 
	C301.634735,120.044647 292.729156,120.044647 283.350098,120.114441 
	C282.475525,120.101921 282.074371,120.019592 281.375305,119.861328 
z"/>
<path fill="#FEF8F8" opacity="1.000000" stroke="none" 
	d="
M199.229416,469.916595 
	C195.091705,466.324280 193.981552,462.224579 196.260864,457.634674 
	C198.217514,453.694611 201.729797,451.748962 206.093552,452.323273 
	C210.636139,452.921082 214.198166,455.694794 214.310822,460.290619 
	C214.386292,463.369629 212.991486,467.177429 210.925873,469.452972 
	C207.866135,472.823669 203.516998,472.661163 199.229416,469.916595 
z"/>
<path fill="#FEF9F9" opacity="1.000000" stroke="none" 
	d="
M328.971924,467.955933 
	C326.204193,457.478485 323.467987,447.403900 320.822662,437.305542 
	C319.609589,432.674683 321.109131,429.632019 324.868683,428.656403 
	C328.579254,427.693481 331.369995,429.612030 332.656158,434.338409 
	C335.614929,445.210876 338.475372,456.110260 341.335602,467.009277 
	C342.535919,471.583099 341.106873,475.014801 337.478302,475.798340 
	C333.015839,476.761963 330.607147,474.416382 329.598511,470.258148 
	C329.442413,469.614563 329.228027,468.985077 328.971924,467.955933 
z"/>
<path fill="#509336" opacity="1.000000" stroke="none" 
	d="
M335.000000,286.998444 
	C264.873596,286.998444 195.247223,286.998444 125.050827,286.998444 
	C126.083221,281.181732 127.049324,275.738525 128.036667,270.175629 
	C214.100861,270.175629 299.864197,270.175629 385.939606,270.175629 
	C386.942719,275.626709 387.928619,280.984253 389.035370,286.998444 
	C370.991882,286.998444 353.245941,286.998444 335.000000,286.998444 
z"/>
<path fill="#B1B1B1" opacity="1.000000" stroke="none" 
	d="
M128.524200,200.024597 
	C128.742340,196.488342 129.231293,192.877777 130.216415,189.408081 
	C130.502823,188.399307 132.104919,187.481628 133.291367,187.089828 
	C134.492264,186.693253 135.925308,186.998337 137.256668,186.998337 
	C216.972153,186.998123 296.687805,187.058014 376.402802,186.861847 
	C381.651917,186.848938 384.429657,187.995178 384.816711,193.420044 
	C384.956360,195.377426 385.586517,197.299820 385.964233,199.641708 
	C375.521973,200.113907 365.108307,200.182587 354.056335,200.395340 
	C350.426849,199.989502 347.435669,199.439575 344.316406,198.526520 
	C336.634949,196.611404 329.143372,194.276260 321.515045,193.674774 
	C306.824829,192.516449 292.312408,193.797409 278.682312,200.943695 
	C278.432861,200.928833 277.937836,200.859711 277.937836,200.859711 
	C273.052826,200.571121 268.171051,200.184830 263.281860,200.022644 
	C258.807037,199.874222 254.324158,199.968018 249.402573,199.496323 
	C249.295319,196.515793 247.945526,195.977448 245.721817,195.980011 
	C211.961075,196.019089 178.200195,196.037323 144.439606,195.954712 
	C141.375443,195.947220 140.655914,197.237427 141.101578,199.871552 
	C137.062408,199.915680 133.023254,199.959808 128.524200,200.024597 
z"/>
<path fill="#71B92D" opacity="1.000000" stroke="none" 
	d="
M344.444489,198.889664 
	C347.435669,199.439575 350.426849,199.989502 353.699280,200.604095 
	C357.017761,202.928528 360.414185,204.840271 363.014099,207.523712 
	C367.764709,212.426910 367.606598,218.316483 361.920807,221.989365 
	C356.611176,225.419250 350.537537,228.244568 344.411896,229.686798 
	C336.747772,231.491241 328.687134,231.611313 320.401062,231.952576 
	C319.302734,225.266418 318.600952,219.086121 318.118744,212.647308 
	C324.628448,208.658493 330.918610,204.928192 337.582397,201.141754 
	C340.118835,200.353622 342.281677,199.621643 344.444489,198.889664 
z"/>
<path fill="#519437" opacity="1.000000" stroke="none" 
	d="
M317.899200,212.905823 
	C318.600952,219.086121 319.302734,225.266418 320.006897,231.830261 
	C306.257629,232.691330 292.924835,230.724503 280.417175,224.791092 
	C275.638275,222.524063 270.938110,219.798996 270.320374,213.420334 
	C286.504242,212.988190 302.201721,212.947006 317.899200,212.905823 
z"/>
<path fill="#356533" opacity="1.000000" stroke="none" 
	d="
M318.118744,212.647308 
	C302.201721,212.947006 286.504242,212.988190 270.328491,213.047287 
	C268.992126,206.986938 273.540802,204.326660 277.644531,201.029694 
	C277.937836,200.859711 278.432861,200.928833 279.154968,200.946106 
	C298.987610,201.041550 318.098206,201.119736 337.208771,201.197906 
	C330.918610,204.928192 324.628448,208.658493 318.118744,212.647308 
z"/>
<path fill="#EFCE22" opacity="1.000000" stroke="none" 
	d="
M144.334076,245.330719 
	C145.684723,237.755127 146.944397,230.601593 148.226303,223.321747 
	C153.245682,223.321747 157.977798,223.321747 163.092133,223.321747 
	C161.182739,236.577332 159.322647,249.490738 157.422455,262.682495 
	C152.116516,262.682495 147.080994,262.682495 141.586914,262.682495 
	C142.504059,256.836914 143.373581,251.294846 144.334076,245.330719 
z"/>
<path fill="#B1B0B1" opacity="1.000000" stroke="none" 
	d="
M347.000000,259.996918 
	C320.500702,259.996887 294.501404,259.997467 268.502106,259.994995 
	C267.335724,259.994873 266.106323,260.186890 265.024719,259.876617 
	C264.283203,259.663910 263.747253,258.734650 263.119415,258.125671 
	C263.830078,257.429535 264.429810,256.464386 265.282532,256.112701 
	C266.140991,255.758652 267.251038,256.004639 268.250824,256.004578 
	C304.749847,256.002930 341.248840,256.003113 377.747864,256.003754 
	C378.581146,256.003784 379.534576,255.756348 380.219086,256.077759 
	C381.208435,256.542297 382.002960,257.421844 382.880585,258.124359 
	C381.920105,258.745819 380.974609,259.876343 379.996643,259.905151 
	C374.168457,260.076874 368.332794,259.995117 362.499634,259.996674 
	C357.499756,259.998016 352.499878,259.996948 347.000000,259.996918 
z"/>
<path fill="#B1B0B1" opacity="1.000000" stroke="none" 
	d="
M291.000000,248.003082 
	C319.499237,248.003098 347.498474,248.002579 375.497711,248.005005 
	C376.664093,248.005112 377.893494,247.813095 378.975128,248.123367 
	C379.716675,248.336060 380.252716,249.265244 380.880615,249.874146 
	C380.170013,250.570328 379.570343,251.535538 378.717651,251.887207 
	C377.859192,252.241257 376.749176,251.995300 375.749390,251.995346 
	C339.917023,251.997070 304.084686,251.996872 268.252319,251.996216 
	C267.419037,251.996201 266.465637,252.243652 265.781067,251.922302 
	C264.791687,251.457825 263.997101,250.578293 263.119385,249.875854 
	C264.079803,249.254333 265.030853,248.110886 266.002136,248.093384 
	C274.165985,247.946457 282.333557,248.005814 291.000000,248.003082 
z"/>
<path fill="#E65B2D" opacity="1.000000" stroke="none" 
	d="
M186.677826,242.690948 
	C186.259155,246.249527 185.900269,249.357529 185.514221,252.700684 
	C180.340927,252.700684 175.425003,252.700684 169.909042,252.700684 
	C171.131668,242.872269 172.331070,233.230621 173.565262,223.309296 
	C178.566101,223.309296 183.285065,223.309296 188.421265,223.309296 
	C187.849884,229.733841 187.293732,235.987106 186.677826,242.690948 
z"/>
<path fill="#B1B0B1" opacity="1.000000" stroke="none" 
	d="
M370.914246,243.996918 
	C336.664062,243.996902 302.899109,243.997314 269.134155,243.995239 
	C267.803741,243.995163 266.394897,244.232971 265.170380,243.866348 
	C264.351196,243.621124 263.793884,242.501205 263.119385,241.772705 
	C263.779083,241.196320 264.354065,240.363037 265.120514,240.110321 
	C266.024475,239.812302 267.094025,240.004990 268.091797,240.004944 
	C303.353699,240.002914 338.615631,240.003128 373.877533,240.004044 
	C374.709106,240.004059 375.677612,239.747513 376.339752,240.085602 
	C377.302551,240.577209 378.044495,241.501343 378.880554,242.241028 
	C378.050079,242.819794 377.279205,243.746353 376.376038,243.901108 
	C374.759216,244.178146 373.062683,243.990387 370.914246,243.996918 
z"/>
<path fill="#346432" opacity="1.000000" stroke="none" 
	d="
M235.988281,210.001831 
	C240.461807,210.001831 244.437363,210.001831 248.412903,210.001831 
	C248.750778,210.380157 249.088654,210.758469 249.426514,211.136795 
	C248.423096,212.089783 247.423035,213.871841 246.415787,213.875900 
	C210.806915,214.019211 175.197388,213.995758 139.707306,213.995758 
	C137.497559,209.420258 140.637939,210.007095 143.083725,210.006546 
	C173.885910,209.999481 204.688095,210.001862 235.988281,210.001831 
z"/>
<path fill="#B1B0B1" opacity="1.000000" stroke="none" 
	d="
M196.000000,206.996918 
	C178.667175,206.996857 161.833923,207.048111 145.002151,206.915054 
	C143.369965,206.902145 141.746796,205.748932 140.119431,205.125031 
	C141.663437,204.417801 143.205261,203.098862 144.751755,203.093338 
	C177.917007,202.974777 211.082779,203.003250 244.248459,203.003891 
	C244.915070,203.003906 245.706970,202.783890 246.221313,203.066025 
	C247.192078,203.598526 248.003143,204.422241 248.880585,205.124939 
	C247.919891,205.746216 246.967209,206.892334 245.997269,206.907150 
	C236.832977,207.047028 227.665741,206.995026 218.499359,206.996658 
	C211.166245,206.997955 203.833115,206.996918 196.000000,206.996918 
z"/>
<path fill="#666666" opacity="1.000000" stroke="none" 
	d="
M141.560852,199.924683 
	C140.655914,197.237427 141.375443,195.947220 144.439606,195.954712 
	C178.200195,196.037323 211.961075,196.019089 245.721817,195.980011 
	C247.945526,195.977448 249.295319,196.515793 248.929199,199.454636 
	C213.272110,199.907074 177.646118,199.942444 141.560852,199.924683 
z"/>
<path fill="#EFCE23" opacity="1.000000" stroke="none" 
	d="
M212.996033,234.055496 
	C212.702240,238.838989 212.419815,243.147552 212.121155,247.704041 
	C207.055603,247.704041 202.293930,247.704041 196.743179,247.704041 
	C197.362961,239.527161 197.969971,231.518936 198.594086,223.284790 
	C203.680099,223.284790 208.276337,223.284790 213.007431,223.284790 
	C213.007431,226.753128 213.007431,230.166840 212.996033,234.055496 
z"/>
<path fill="#E5592B" opacity="1.000000" stroke="none" 
	d="
M223.766998,236.893646 
	C223.790878,232.118912 223.790878,227.829483 223.790878,223.279068 
	C229.136108,223.279068 233.727859,223.279068 238.692261,223.279068 
	C238.692261,228.917633 238.692261,234.625031 238.692261,240.958282 
	C234.509766,240.958282 230.404007,240.853653 226.306595,240.993652 
	C223.385727,241.093445 223.631149,239.263626 223.766998,236.893646 
z"/>
<path fill="#1E3806" opacity="1.000000" stroke="none" 
	d="
M337.582397,201.141754 
	C318.098206,201.119736 298.987610,201.041550 279.404419,200.960968 
	C292.312408,193.797409 306.824829,192.516449 321.515045,193.674774 
	C329.143372,194.276260 336.634949,196.611404 344.316406,198.526520 
	C342.281677,199.621643 340.118835,200.353622 337.582397,201.141754 
z"/>
</svg>