<?xml version="1.0" encoding="utf-8"?>
<svg viewBox="21.462 61.286 38.15 37.951" style="enable-background:new 0 0 217 161;" xmlns="http://www.w3.org/2000/svg">
  <g transform="matrix(1, 0, 0, 1, 0, 7.105427357601002e-15)">
    <path d="M43.8,72.6c0.3-0.5,0.2-1.1-0.3-1.4s-1.1-0.2-1.4,0.3s-0.2,1.1,0.3,1.4C42.9,73.1,43.5,73,43.8,72.6" style="fill: rgb(255, 255, 255);"/>
    <path d="M40.9,80.1l-0.7-0.5L39.5,79c0,0-1.3,0.8-2.4,1c0,0,0.5,0.9,1.8,1.9s2.2,1.2,2.2,1.2C40.7,81.8,40.9,80.1,40.9,80.1" style="fill: rgb(255, 255, 255);"/>
    <path d="M41,76.4c0,0-0.3-3.1-6.1-2.2C29.6,75,30,77.7,30,77.7c-0.2,0.3,1.4,3.2,6.4,2.1S41,76.4,41,76.4" style="fill: rgb(255, 255, 255);"/>
    <path d="M46.4,75.8c0.5,0.3,1.1,0.2,1.4-0.3s0.2-1.1-0.3-1.4s-1.1-0.2-1.4,0.3C45.9,74.9,46,75.5,46.4,75.8" style="fill: rgb(255, 255, 255);"/>
    <path d="M40.5,62C30.3,62,22,70.3,22,80.5S30.3,99,40.5,99S59,90.7,59,80.5S50.7,62,40.5,62 M37.1,89.2c-1.7,1.2-2.8,0.7-2.9,0.7 c-0.1-0.1-1-0.9-0.4-2.9c0,0,0-0.2,0.2,0c0,0,0.3,0.8,1.3,1.5l-0.5,0.7l0.5-0.7C36.2,89.1,37.1,89.1,37.1,89.2 C37.3,89.1,37.1,89.2,37.1,89.2 M41,87.2c-0.6,0.8-1,1.2-2.3,1.4c-1.3,0.2-2.9-0.9-3-0.9c-0.1-0.1-1.7-1.2-2-2.5s-0.2-1.8,0.4-2.6 c0,0,0-0.1,0.1,0c0,0,0.6,1.7,2.7,3.2C39.1,87.2,41,87.1,41,87.2C41.1,87.1,41,87.2,41,87.2 M49.4,89.4c-0.6,0.9-2.2,1.9-4.1,0.6 s-2.8-3.9-2.8-3.9c0-0.1-0.1-0.1-0.1-0.1c-2.4,0.2-4.5-1.3-4.7-1.4s-2.4-1.5-3-3.8c0,0,0-0.1-0.1-0.1c0,0-2.7,0.1-4.7-1.2 c-1.9-1.3-1.6-3.1-1-4s1.7-1.9,4.5-2.7c2.8-0.7,5.5-0.1,6.3,0.2h0.1c0.1-0.1,0.4-0.3,0.4-0.3v-0.1c0-0.1-0.1-0.8,0.4-1.6 c0.6-0.8,2-1.8,3.9-0.5h0.1c0.1,0,1.5-0.2,2.3,0.3c0.8,0.6,1.1,2,1.2,2v0.1c1.9,1.3,1.5,3,1,3.8c-0.6,0.8-1.3,1-1.3,1 c-0.1,0-0.1,0.1-0.1,0.1s-0.1,0.3-0.2,0.5v0.1c0.6,0.7,2.1,3,2.5,5.8C50.6,87.1,50.1,88.5,49.4,89.4" style="fill: rgb(255, 255, 255);"/>
    <path d="M44.5,78c0,0-2.2,0.4-1.2,5.6c1,5.1,4,5.6,4.2,5.3c0,0,2.4-0.5,1.2-5.8C47.3,77.2,44.5,78,44.5,78" style="fill: rgb(255, 255, 255);"/>
  </g>
</svg>