<?xml version="1.0" encoding="utf-8"?>
<svg viewBox="22.256 144.891 102.876 101.365" xmlns="http://www.w3.org/2000/svg">
  <g transform="matrix(1, 0, 0, 1, 9.572255134582523, -126.24204254150392)">
    <path class="st0" d="M65.5,300.2c-0.7-0.1-1.4-0.1-2.1-0.1c-0.7,0-1.5,0-2.1,0.1l-2.2-21c1.4-0.1,2.9-0.2,4.3-0.2 c1.4,0,2.9,0.1,4.3,0.2L65.5,300.2z" style="fill: rgb(255, 255, 255);"/>
    <path class="st0" d="M56.8,301.2c-0.7,0.2-1.4,0.5-2,0.7c-0.7,0.3-1.3,0.6-1.9,0.9l-10.2-18.5c1.3-0.7,2.5-1.3,3.9-1.9 c1.3-0.6,2.7-1,4-1.5L56.8,301.2z" style="fill: rgb(255, 255, 255);"/>
    <path class="st0" d="M49.7,305.1c-0.5,0.5-1.1,1-1.6,1.5c-0.5,0.5-1,1-1.4,1.6l-16.6-13.1c0.9-1.1,1.8-2.2,2.9-3.3c1-1,2-2,3.1-2.9 L49.7,305.1z" style="fill: rgb(255, 255, 255);"/>
    <path class="st0" d="M44.6,311.5c-0.3,0.6-0.6,1.3-0.9,2c-0.3,0.7-0.5,1.4-0.7,2l-20.3-5.9c0.4-1.4,0.9-2.7,1.4-4.1 c0.5-1.3,1.1-2.6,1.8-3.9L44.6,311.5z" style="fill: rgb(255, 255, 255);"/>
    <path class="st0" d="M42.3,319.3c-0.1,0.7-0.1,1.4-0.1,2.1c0,0.7,0,1.5,0.1,2.1l-21,2.2c-0.1-1.4-0.2-2.9-0.2-4.3 c0-1.4,0.1-2.9,0.2-4.3L42.3,319.3z" style="fill: rgb(255, 255, 255);"/>
    <path class="st0" d="M43.3,327.9c0.2,0.7,0.5,1.4,0.7,2c0.3,0.7,0.6,1.3,0.9,1.9l-18.5,10.2c-0.7-1.3-1.3-2.5-1.9-3.9 c-0.6-1.3-1-2.7-1.5-4L43.3,327.9z" style="fill: rgb(255, 255, 255);"/>
    <path class="st0" d="M47.1,335c0.5,0.5,1,1.1,1.5,1.6c0.5,0.5,1,1,1.6,1.4l-13.1,16.6c-1.1-0.9-2.2-1.8-3.3-2.9c-1-1-2-2-2.9-3.1 L47.1,335z" style="fill: rgb(255, 255, 255);"/>
    <path class="st0" d="M53.5,340.2c0.6,0.3,1.3,0.6,1.9,0.9c0.7,0.3,1.4,0.5,2,0.7l-5.9,20.3c-1.4-0.4-2.7-0.9-4.1-1.4 c-1.3-0.5-2.6-1.1-3.9-1.8L53.5,340.2z" style="fill: rgb(255, 255, 255);"/>
    <path class="st0" d="M61.1,342.2c0.7,0.1,1.4,0.1,2.1,0.1c0.7,0,1.5,0,2.1-0.1l2.2,21c-1.4,0.1-2.9,0.2-4.3,0.2 c-1.4,0-2.9-0.1-4.3-0.2L61.1,342.2z" style="fill: rgb(255, 255, 255);"/>
    <path class="st0" d="M69.8,341.2c0.7-0.2,1.4-0.5,2-0.7c0.7-0.3,1.3-0.6,1.9-0.9L84,358c-1.3,0.7-2.5,1.3-3.9,1.9 c-1.3,0.6-2.7,1-4,1.5L69.8,341.2z" style="fill: rgb(255, 255, 255);"/>
    <path class="st0" d="M76.9,337.3c0.5-0.5,1.1-1,1.6-1.5c0.5-0.5,1-1.1,1.4-1.6l16.6,13c-0.9,1.1-1.8,2.2-2.8,3.3 c-1,1-2.1,2-3.1,2.9L76.9,337.3z" style="fill: rgb(255, 255, 255);"/>
    <path class="st0" d="M82,330.9c0.3-0.6,0.6-1.3,0.9-1.9c0.3-0.7,0.5-1.3,0.7-2l20.3,5.9c-0.4,1.4-0.9,2.7-1.4,4.1 c-0.5,1.3-1.1,2.6-1.8,3.9L82,330.9z" style="fill: rgb(255, 255, 255);"/>
    <path class="st0" d="M84.4,323.4c0.1-0.7,0.1-1.4,0.1-2.1c0-0.7,0-1.5-0.1-2.1l21-2.2c0.1,1.4,0.2,2.9,0.2,4.3 c0,1.4-0.1,2.9-0.2,4.3L84.4,323.4z" style="fill: rgb(255, 255, 255);"/>
    <path class="st0" d="M83.3,314.7c-0.2-0.7-0.5-1.4-0.7-2c-0.3-0.7-0.6-1.3-0.9-1.9l18.5-10.2c0.7,1.3,1.3,2.5,1.9,3.9 c0.6,1.3,1,2.7,1.5,4L83.3,314.7z" style="fill: rgb(255, 255, 255);"/>
    <path class="st0" d="M79.5,307.7c-0.5-0.5-1-1.1-1.5-1.6c-0.5-0.5-1-1-1.6-1.4l13-16.6c1.1,0.9,2.2,1.8,3.3,2.9c1,1,2,2,2.9,3.1 L79.5,307.7z" style="fill: rgb(255, 255, 255);"/>
    <path class="st0" d="M73.1,302.5c-0.6-0.3-1.3-0.6-2-0.9c-0.7-0.3-1.4-0.5-2-0.7l5.9-20.3c1.4,0.4,2.7,0.9,4.1,1.4 c1.3,0.5,2.6,1.1,3.9,1.8L73.1,302.5z" style="fill: rgb(255, 255, 255);"/>
    <path class="st1" d="M621.1,347.2c0-5.5-4.5-10-10-10c-5.5,0-10,4.5-10,10c0,5.5,4.5,10,10,10C616.6,357.1,621.1,352.7,621.1,347.2 M619.9,347.2c0,4.9-4,8.8-8.8,8.8c-4.9,0-8.8-3.9-8.8-8.8c0-4.9,3.9-8.8,8.8-8.8C615.9,338.4,619.9,342.3,619.9,347.2 M607.4,352.4h1.4v-4.7h3.6c2.3,0,1.6,2,1.9,3.3l0.2,1.4h1.7c-0.6-1-0.4-1.2-0.5-2.6c-0.2-1.9-0.2-2.1-1.3-2.8 c1.1-0.8,1.5-1.3,1.5-2.7c-0.1-2.5-1.8-2.8-3.5-2.8h-4.9V352.4z M612.3,342.7c0.9,0,2.2,0.2,2,2.1c-0.1,1.4-1.1,1.7-2,1.7h-3.5 v-3.8H612.3z" style="clip-rule: evenodd; fill: rgb(35, 24, 21); fill-rule: evenodd;"/>
    <path class="st0" d="M607.4,352.4v-11h4.9c1.7,0,3.4,0.3,3.5,2.8c0.1,1.4-0.4,1.9-1.5,2.7c1.1,0.7,1.2,0.9,1.3,2.8 c0.1,1.5-0.1,1.7,0.5,2.6h-1.7l-0.2-1.4c-0.2-1.3,0.4-3.3-1.9-3.3h-3.6v4.7H607.4z M612.3,342.7h-3.5v3.8h3.5c1,0,1.9-0.3,2-1.7 C614.5,342.9,613.2,342.7,612.3,342.7" style="fill: rgb(35, 24, 21);"/>
  </g>
</svg>